<svg t="1744265219844" class="icon" viewBox="0 0 1024 1024" version="1.1" xmlns="http://www.w3.org/2000/svg" p-id="6549"
    width="200" height="200">
    <path
        d="M928 327.424a76.384 76.384 0 0 0-10.176-39.808 78.432 78.432 0 0 0-29.952-28.128q-166.208-91.776-332.576-183.456a84.544 84.544 0 0 0-88.416 0.768c-44.096 24.928-264.8 146.08-330.592 182.592A73.184 73.184 0 0 0 96 327.392V696.64a76.8 76.8 0 0 0 9.6 39.04 77.888 77.888 0 0 0 30.528 28.8c65.792 36.512 286.528 157.664 330.624 182.592a84.544 84.544 0 0 0 88.416 0.832q166.08-91.872 332.352-183.456a78.208 78.208 0 0 0 30.56-28.8 76.8 76.8 0 0 0 9.6-39.04V327.424"
        fill="#659AD2" p-id="6550"></path>
    <path
        d="M913.568 741.472a68.032 68.032 0 0 0 4.704-5.824 76.8 76.8 0 0 0 9.6-39.04V327.424a76.384 76.384 0 0 0-10.176-39.808c-1.152-1.888-2.848-3.36-4.16-5.12L512 512z"
        fill="#00599C" p-id="6551"></path>
    <path
        d="M913.568 741.472L512 512 110.432 741.472a77.92 77.92 0 0 0 25.888 23.04c65.792 36.512 286.528 157.664 330.624 182.592a84.544 84.544 0 0 0 88.416 0.832q166.08-91.872 332.352-183.456a77.76 77.76 0 0 0 25.856-23.008z"
        fill="#004482" p-id="6552"></path>
    <path
        d="M627.2 576.64a131.872 131.872 0 1 1-0.864-130.784l115.68-66.336A265.888 265.888 0 0 0 246.4 512a262.912 262.912 0 0 0 35.2 131.744 266.208 266.208 0 0 0 461.152-0.544L627.2 576.64"
        fill="#FFFFFF" p-id="6553"></path>
    <path
        d="M770.432 497.216h-29.632v-29.472h-29.6v29.472h-29.632v29.536h29.632v29.44h29.6v-29.44h29.632v-29.536zM881.568 497.216h-29.632v-29.472h-29.632v29.472h-29.632v29.536h29.632v29.44h29.632v-29.44h29.632v-29.536z"
        fill="#FFFFFF" p-id="6554"></path>
</svg>