<svg class="icon" viewBox="0 0 1024 1024" version="1.1" xmlns="http://www.w3.org/2000/svg" width="200" height="200"><path d="M506.88 266.24h430.08v174.08H506.88z" fill="#FFFFFF"></path><path d="M117.76 834.56c-37.87776 0-70.87616-20.61824-88.59136-51.2A101.81632 101.81632 0 0 0 15.36 834.56c0 56.55552 45.84448 102.4 102.4 102.4h102.4v-102.4H117.76z" fill="#3ECC5F"></path><path d="M578.4576 293.76512L936.96 271.36V220.16c0-56.55552-45.84448-102.4-102.4-102.4H373.76l-12.8-22.1696c-5.69344-9.856-19.91168-9.856-25.6 0L322.56 117.76l-12.8-22.1696c-5.68832-9.856-19.91168-9.856-25.6 0L271.36 117.76l-12.8-22.1696c-5.68832-9.856-19.91168-9.856-25.6 0L220.16 117.76c-0.11264 0-0.21504 0.01536-0.3328 0.01536l-21.20704-21.20192c-8.0384-8.04352-21.77024-4.36736-24.71936 6.62528l-7.00928 26.13248-26.58304-7.12704c-10.99776-2.944-21.04832 7.11168-18.0992 18.10432l7.1168 26.58816-26.12224 6.99904c-10.99776 2.94912-14.67904 16.68608-6.63552 24.7296l21.20704 21.20704c0 0.10752-0.01536 0.21504-0.01536 0.32768l-22.1696 12.8c-9.856 5.68832-9.856 19.91168 0 25.6L117.76 271.36l-22.1696 12.8c-9.856 5.68832-9.856 19.91168 0 25.6L117.76 322.56l-22.1696 12.8c-9.856 5.68832-9.856 19.91168 0 25.6L117.76 373.76l-22.1696 12.8c-9.856 5.68832-9.856 19.91168 0 25.6L117.76 424.96l-22.1696 12.8c-9.856 5.68832-9.856 19.91168 0 25.6L117.76 476.16l-22.1696 12.8c-9.856 5.68832-9.856 19.91168 0 25.6L117.76 527.36l-22.1696 12.8c-9.856 5.68832-9.856 19.91168 0 25.6L117.76 578.56l-22.1696 12.8c-9.856 5.68832-9.856 19.91168 0 25.6L117.76 629.76l-22.1696 12.8c-9.856 5.68832-9.856 19.91168 0 25.6L117.76 680.96l-22.1696 12.8c-9.856 5.68832-9.856 19.91168 0 25.6L117.76 732.16l-22.1696 12.8c-9.856 5.68832-9.856 19.91168 0 25.6L117.76 783.36l-22.1696 12.8c-9.856 5.68832-9.856 19.91168 0 25.6L117.76 834.56c0 56.55552 45.84448 102.4 102.4 102.4h614.4c56.55552 0 102.4-45.84448 102.4-102.4V424.96l-358.5024-22.40512A54.5024 54.5024 0 0 1 527.36 348.16c0-28.77952 22.3744-52.59776 51.0976-54.39488" fill="#3ECC5F"></path><path d="M732.16 936.96h153.6v-204.8h-153.6z" fill="#3ECC5F"></path><path d="M988.16 808.96c-1.12128 0-2.19136 0.18944-3.27168 0.32768-0.19456-0.768-0.37888-1.54112-0.59392-2.30912A25.6 25.6 0 0 0 974.4384 757.76a25.3952 25.3952 0 0 0-15.44192 5.30432 135.83872 135.83872 0 0 0-1.7152-1.72032 25.3696 25.3696 0 0 0 5.17632-15.29344 25.6 25.6 0 0 0-49.14688-10.03008c-0.75776-0.21504-1.52064-0.39424-2.2784-0.5888 0.13824-1.08032 0.32768-2.1504 0.32768-3.27168a25.6 25.6 0 0 0-25.6-25.6 25.6 25.6 0 0 0-25.6 25.6c0 1.12128 0.18944 2.19136 0.32768 3.27168-0.75776 0.19456-1.52064 0.37376-2.2784 0.5888a25.58976 25.58976 0 0 0-49.14688 10.03008c0 5.76 1.96608 11.01312 5.17632 15.29344-19.03104 18.59584-30.87872 44.50816-30.87872 73.216 0 56.55552 45.84448 102.4 102.4 102.4 47.81568 0 87.8592-32.8192 99.12832-77.12768 1.08032 0.13824 2.1504 0.32768 3.27168 0.32768a25.6 25.6 0 0 0 25.6-25.6 25.6 25.6 0 0 0-25.6-25.6" fill="#44D860"></path><path d="M783.36 629.76h153.6v-102.4h-153.6z" fill="#3ECC5F"></path><path d="M988.16 591.36a12.8 12.8 0 1 0 0-25.6c-0.55808 0-1.09568 0.09728-1.63328 0.16384-0.1024-0.384-0.18944-0.768-0.29696-1.152a12.80512 12.80512 0 0 0-4.93056-24.61184c-2.91328 0-5.57056 1.00864-7.72096 2.65216a34.06336 34.06336 0 0 0-0.86016-0.86016c1.60768-2.13504 2.59072-4.76672 2.59072-7.64928a12.8 12.8 0 0 0-24.576-5.01248A51.13344 51.13344 0 0 0 936.96 527.36c-28.27264 0-51.2 22.92736-51.2 51.2s22.92736 51.2 51.2 51.2c4.78208 0 9.38496-0.70656 13.7728-1.93024a12.8 12.8 0 0 0 24.576-5.01248c0-2.88256-0.98304-5.51424-2.59072-7.64928 0.29184-0.2816 0.57856-0.56832 0.86016-0.86016 2.1504 1.64352 4.80768 2.65216 7.72096 2.65216a12.8 12.8 0 0 0 4.93056-24.61184c0.10752-0.37888 0.19456-0.768 0.29696-1.152 0.5376 0.06656 1.0752 0.16384 1.63328 0.16384" fill="#44D860"></path><path d="M322.56 284.16a12.8 12.8 0 0 1-12.8-12.8c0-21.17632-17.22368-38.4-38.4-38.4s-38.4 17.22368-38.4 38.4a12.8 12.8 0 1 1-25.6 0c0-35.29216 28.70784-64 64-64S335.36 236.06784 335.36 271.36a12.8 12.8 0 0 1-12.8 12.8" fill="#000000"></path><path d="M527.36 936.96h307.2c56.55552 0 102.4-45.84448 102.4-102.4V476.16h-307.2c-56.55552 0-102.4 45.84448-102.4 102.4v358.4z" fill="#FFFF50"></path><path d="M860.2624 634.88h-256.2048a5.12 5.12 0 1 1 0-10.24h256.2048a5.12 5.12 0 1 1 0 10.24m0 102.4h-256.2048a5.12 5.12 0 1 1 0-10.24h256.2048a5.12 5.12 0 1 1 0 10.24m0 102.4h-256.2048a5.12 5.12 0 1 1 0-10.24h256.2048a5.12 5.12 0 1 1 0 10.24m0-255.04768h-256.2048a5.12 5.12 0 1 1 0-10.24h256.2048a5.12 5.12 0 1 1 0 10.24m0 101.44768h-256.2048a5.12 5.12 0 1 1 0-10.24h256.2048a5.12 5.12 0 1 1 0 10.24m0 102.4h-256.2048a5.12 5.12 0 1 1 0-10.24h256.2048a5.12 5.12 0 1 1 0 10.24M936.96 315.44832c-0.06144 0-0.11264-0.03072-0.17408-0.0256-15.8208 0.5376-23.30624 16.36352-29.91104 30.32576-6.89152 14.592-12.22144 24.07936-20.95616 23.79264-9.67168-0.34816-15.20128-11.27424-21.05856-22.8352-6.72768-13.28128-14.40768-28.34432-30.53056-27.78112-15.59552 0.53248-23.10656 14.30528-29.73184 26.45504-7.05024 12.94336-11.84768 20.8128-21.09952 20.44928-9.86624-0.3584-15.10912-9.2416-21.17632-19.52256-6.76352-11.44832-14.58176-24.32-30.39232-23.87968-15.32928 0.52736-22.8608 12.2112-29.50656 22.528-7.02976 10.9056-11.9552 17.55136-21.3248 17.15712-10.10176-0.3584-15.31904-7.7312-21.35552-16.26624-6.77888-9.58976-14.41792-20.44416-30.1824-19.9168-14.99136 0.512-22.52288 10.0864-29.16352 18.52416-6.30784 8.00768-11.23328 14.34624-21.65248 13.94688a5.12 5.12 0 0 0-0.36864 10.24c15.44704 0.51712 23.2704-9.216 30.06464-17.85344 6.02624-7.65952 11.22816-14.26944 21.46816-14.6176 9.86112-0.41984 14.48448 5.7088 21.4784 15.5904 6.64064 9.39008 14.17728 20.03968 29.34272 20.58752 15.88736 0.53248 23.53152-11.3408 30.30016-21.84704 6.05184-9.39008 11.27424-17.49504 21.248-17.83808 9.18016-0.34304 14.17728 6.912 21.2224 18.84672 6.64064 11.24864 14.16192 23.99232 29.62944 24.55552 16 0.55296 23.72608-13.4144 30.45888-25.7792 5.83168-10.69056 11.33568-20.7872 21.08928-21.12512 9.18016-0.21504 13.96736 8.1664 21.04832 22.1696 6.61504 13.07136 14.11584 27.8784 29.824 28.44672l0.86528 0.01536c15.68768 0 23.13216-15.744 29.7216-29.66528 5.83168-12.3392 11.35104-23.9616 20.82304-24.43776v-10.24z" fill="#000000"></path><path d="M424.96 936.96h204.8v-204.8H424.96z" fill="#3ECC5F"></path><path d="M732.16 808.96c-1.12128 0-2.19136 0.18944-3.27168 0.32768-0.19456-0.768-0.37888-1.54112-0.59392-2.30912A25.6 25.6 0 0 0 718.4384 757.76a25.3952 25.3952 0 0 0-15.44192 5.30432 135.83872 135.83872 0 0 0-1.7152-1.72032 25.3696 25.3696 0 0 0 5.17632-15.29344 25.6 25.6 0 0 0-49.14688-10.03008c-0.75776-0.21504-1.52064-0.39424-2.2784-0.5888 0.13824-1.08032 0.32768-2.1504 0.32768-3.27168a25.6 25.6 0 0 0-25.6-25.6 25.6 25.6 0 0 0-25.6 25.6c0 1.12128 0.18944 2.19136 0.32768 3.27168-0.75776 0.19456-1.52064 0.37376-2.2784 0.5888a25.58976 25.58976 0 0 0-49.14688 10.03008c0 5.76 1.96608 11.01312 5.17632 15.29344-19.03104 18.59584-30.87872 44.50816-30.87872 73.216 0 56.55552 45.84448 102.4 102.4 102.4 47.81568 0 87.8592-32.8192 99.12832-77.12768 1.08032 0.13824 2.1504 0.32768 3.27168 0.32768a25.6 25.6 0 0 0 25.6-25.6 25.6 25.6 0 0 0-25.6-25.6" fill="#44D860"></path><path d="M424.96 629.76h204.8v-102.4H424.96z" fill="#3ECC5F"></path><path d="M680.96 591.36a12.8 12.8 0 1 0 0-25.6c-0.55808 0-1.09568 0.09728-1.63328 0.16384-0.1024-0.384-0.18944-0.768-0.29696-1.152a12.80512 12.80512 0 0 0-4.93056-24.61184c-2.91328 0-5.57056 1.00864-7.72096 2.65216a34.06336 34.06336 0 0 0-0.86016-0.86016c1.60768-2.13504 2.59072-4.76672 2.59072-7.64928a12.8 12.8 0 0 0-24.576-5.01248A51.13344 51.13344 0 0 0 629.76 527.36c-28.27264 0-51.2 22.92736-51.2 51.2s22.92736 51.2 51.2 51.2c4.78208 0 9.38496-0.70656 13.7728-1.93024a12.8 12.8 0 0 0 24.576-5.01248c0-2.88256-0.98304-5.51424-2.59072-7.64928 0.29184-0.2816 0.57856-0.56832 0.86016-0.86016 2.1504 1.64352 4.80768 2.65216 7.72096 2.65216a12.8 12.8 0 0 0 4.93056-24.61184c0.10752-0.37888 0.19456-0.768 0.29696-1.152 0.5376 0.06656 1.0752 0.16384 1.63328 0.16384" fill="#44D860"></path><path d="M732.16 213.76c-0.8192 0-1.6896-0.1024-2.5088-0.256a12.9024 12.9024 0 0 1-2.4064-0.7168c-0.768-0.3072-1.4848-0.7168-2.20672-1.1776-0.6656-0.4608-1.32608-1.024-1.9456-1.5872-0.55808-0.6144-1.12128-1.2288-1.58208-1.9456s-0.8704-1.4336-1.18272-2.2016a13.40928 13.40928 0 0 1-0.96768-4.9152c0-0.8192 0.1024-1.6896 0.256-2.5088 0.1536-0.8192 0.4096-1.5872 0.71168-2.4064 0.31232-0.768 0.72192-1.4848 1.18272-2.2016 0.4608-0.6656 1.024-1.3312 1.58208-1.9456 0.61952-0.5632 1.28-1.1264 1.9456-1.5872 0.72192-0.4608 1.43872-0.8704 2.20672-1.1776 0.76288-0.3072 1.5872-0.5632 2.4064-0.7168 1.6384-0.3584 3.328-0.3584 5.0176 0 0.81408 0.1536 1.6384 0.4096 2.4064 0.7168 0.76288 0.3072 1.4848 0.7168 2.2016 1.1776 0.6656 0.4608 1.32608 1.024 1.9456 1.5872 0.5632 0.6144 1.1264 1.28 1.5872 1.9456 0.4608 0.7168 0.8704 1.4336 1.1776 2.2016 0.3072 0.8192 0.5632 1.5872 0.7168 2.4064 0.14848 0.8192 0.256 1.6896 0.256 2.5088 0 3.3792-1.38752 6.7072-3.7376 9.0624-0.61952 0.5632-1.28 1.1264-1.9456 1.5872-0.7168 0.4608-1.43872 0.8704-2.2016 1.1776a13.1328 13.1328 0 0 1-4.9152 0.9728m102.4-6.4c-3.3792 0-6.656-1.3824-9.06752-3.7376a19.46624 19.46624 0 0 1-1.58208-1.9456c-0.4608-0.7168-0.8704-1.4336-1.18272-2.2016a13.40928 13.40928 0 0 1-0.96768-4.9152c0-3.3792 1.3824-6.656 3.73248-9.0624 0.61952-0.5632 1.28-1.1264 1.9456-1.5872 0.72192-0.4608 1.43872-0.8704 2.20672-1.1776 0.76288-0.3072 1.5872-0.5632 2.4064-0.7168 1.6384-0.3584 3.3792-0.3584 5.0176 0 0.81408 0.1536 1.6384 0.4096 2.4064 0.7168 0.76288 0.3072 1.4848 0.7168 2.2016 1.1776 0.6656 0.4608 1.32608 1.024 1.9456 1.5872 2.35008 2.4064 3.7376 5.6832 3.7376 9.0624 0 0.8192-0.10752 1.6896-0.256 2.5088-0.1536 0.8192-0.4096 1.6384-0.7168 2.4064-0.3584 0.768-0.7168 1.4848-1.1776 2.2016-0.4608 0.6656-1.024 1.3312-1.5872 1.9456-0.61952 0.5632-1.28 1.1264-1.9456 1.5872-0.7168 0.4608-1.43872 0.8704-2.2016 1.1776a13.1328 13.1328 0 0 1-4.9152 0.9728" fill="#000000"></path></svg>