<?xml version="1.0" standalone="no"?><!DOCTYPE svg PUBLIC "-//W3C//DTD SVG 1.1//EN" "http://www.w3.org/Graphics/SVG/1.1/DTD/svg11.dtd"><svg t="1758303522440" class="icon" viewBox="0 0 1024 1024" version="1.1" xmlns="http://www.w3.org/2000/svg" p-id="5472" xmlns:xlink="http://www.w3.org/1999/xlink" width="200" height="200"><path d="M429.2 537c50 28.8 74.8 43.2 102.2 43.2s52.4-14.4 102.4-43.2L951.6 354c14.4-8.2 23.2-23.6 23.2-40.2s-8.8-31.8-23.2-40.2l-318-183c-50-28.8-74.8-43-102.2-43s-52.4 14.4-102.2 43.2L156 248.4c-2.2 1.2-3.4 2-4.4 2.6C58.4 305.6 0.8 405.4 0 513.4v10c0.8 108 58.4 207.6 151.4 262.4 1 0.6 2.2 1.2 4.4 2.6l170.8 98.8c100 57.8 150 86.6 204.8 86.8s105-28.8 205-86.6l180.6-104.2c50-28.8 75-43.2 88.6-67s13.8-52.6 13.8-110.4V494c0-16-8.6-30.8-22.6-38.6-13.6-7.6-30-7.4-43.6 0.2L582.4 669c-25 14.4-37.4 21.6-51 21.6s-26.2-7.2-51-21.4l-250.8-144.2c-12.6-7.2-19-10.8-24-11.6-11.6-1.4-22.6 5-27 15.8-2 4.8-1.8 12-1.8 26.6 0 10.6 0 16 1 21 2.2 11 8 21 16.4 28.4 3.8 3.4 8.4 6 17.6 11.4L480 771.6c25 14.4 37.4 21.6 51.2 21.6s26.2-7.2 51.2-21.6l328.8-189.8c8.6-5 12.8-7.4 16-5.6s3.2 6.8 3.2 16.6v50.6c0 14.4 0 21.6-3.4 27.6s-9.6 9.6-22.2 16.8L633.8 844c-50 28.8-75 43.2-102.4 43.2s-52.4-14.4-102.4-43.4L175.4 697.4c-1-0.6-1.4-0.8-1.8-1-53.2-31.2-85.8-88-86.2-149.4v-48.8c0-34 18.2-65.4 47.6-82.6 26-15.2 58.2-15.2 84.2 0l210 121.4z" p-id="5473" fill="#cdcdcd"></path></svg>