<svg id="Capa_2" data-name="Capa 2" xmlns="http://www.w3.org/2000/svg" viewBox="0 0 228.06 45">
  <g id="Capa_1-2" data-name="Capa 1">
    <path d="M225.64,9l2.41-9h-36l-2.41,9h0l-7.23,27h-22.5L169.56,0H12.06L0,45h49.5l4.82-18h15.75l2.41-9h-15.75l2.41-9h22.5l-7.23,27h0l-2.41,9h144l2.41-9h-22.5l2.41-9h15.75l2.41-9h-15.75l2.41-9h22.5ZM43.23,18l-2.41,9h0l-2.41,9H15.91l2.41-9h15.76l2.41-9h-15.76l2.41-9h22.5l-2.41,9h0ZM110.41,36h-22.5l2.41-9h15.75l2.41-9h-15.75l2.41-9h22.5l-7.23,27h0ZM146.41,36h-22.5l2.41-9h15.75l2.41-9h-15.75l2.41-9h22.5l-7.23,27h0Z"/>
  </g>
</svg>