<svg xmlns="http://www.w3.org/2000/svg" width="900" height="350" style="width:100%;height:100%;content-visibility:visible" viewBox="0 0 900 350"><defs><clipPath id="a"><path d="M0 0h900v350H0z"/></clipPath></defs><g clip-path="url(#a)"><g display="block"><path fill="#DCDCDB" d="m112.334 58.834-39.667 6.334-51.916-4.584 43.583 16.584 43-1 38.333-14-33.333-3.334z"/><path fill="#EBEBEA" d="m20.75 60.584 52.582.25 29.335-8 42.999 9.334-45.333 2.334-34.001 5.666-45.582-9.584z"/><path fill="#DCDCDB" d="m599.667 5.904-71.334 10.269 72 9.477L650 41.75l66.333-27.947-62 9.476-54.666-17.375z"/><path fill="#EBEBEA" d="m528.333 16.172 67-3.553 59 14.216 62-13.033-58.083-2.552L597.5.083l-69.167 16.089z"/><path fill="#DCDCDB" d="m817.667 88.999-54 1.333L799.333 105 826 102.667l30.333 5 34.334-17.668-40 7-33-8z"/><path fill="#EBEBEA" d="M763.667 90.333 816 82l41.333 7.333 33.334.667-35 10.666-92-10.333z"/></g><g display="block" opacity=".1"><path fill="#2B2B2B" d="m815.201 290.426 43.259-5.3 41.207 6.668-40.353 7.352-44.113-8.72zM10.557 274.91l43.258-5.3 41.206 6.668-40.352 7.352-44.112-8.72zM90.49 317.107l62.7-8.257 59.726 10.388-58.487 11.454-63.939-13.585zM195.644 308.131l62.7-8.257 59.726 10.388-58.487 11.454-63.939-13.585zM581.074 311.208l76.272-8.257 72.655 10.388-71.148 11.454-77.779-13.585zM338.161 301.027l106.009-19.834 125.159 21.886-40.694 28.041H411.341l-73.18-30.093z" opacity="1"/></g><g display="block"><path fill="#EBEBEA" d="M10.492 188.18.083 221.333l18.89 2.715 6.664-38.898-15.145 3.03z"/><path fill="#CDCDCC" d="m6.008 223.195 5.089-22.295 8.967-1.574-4.968 25.083-9.088-1.214z"/><path fill="#EBEBEA" d="m23.094 183.818-9.451 40.713 19.628.725 6.056-45.195-16.233 3.757z"/><path fill="#FFF" d="m18.489 203.689-1.453 6.299 21.323-22.659.726-5.33-20.596 21.69zm-3.394 14.782-1.332 5.939 23.143-25.205.727-5.452-22.417 24.718h-.121z"/><path fill="#CDCDCC" d="m50.962 178.363-16.167 7.379-7.218 39.032 8.967 2.664 14.781-1.575-.363-47.5z"/><path fill="#EBEBEA" d="m50.963 178.363-11.755.972-4.847 37.561-.243 9.814 2.426.728 14.782-1.575-.363-47.5z"/><path fill="#FFF" d="m35.211 210.476-.731 5.572 16.602-17.569v-4.604l-15.871 16.722v-.121zm-.972 12.357-.121 3.877.362.121 16.602-18.054v-4.483l-16.843 18.659v-.12z"/><path fill="#CDCDCC" d="m49.51 174.246-4.847 53.674h13.934l6.058-57.43-15.145 3.756z"/><path fill="#EBEBEA" d="m58.113 172.063-3.878.968-1.336 14.177 5.214-15.145zM49.873 190.481l-3.032 38.291 13.571.847 8.241-2.061-.363-38.167-18.417 1.09z"/><path fill="#CDCDCC" d="m60.413 178.729-5.332 50.889 10.177.485 15.634-1.09 4.363-53.314-24.842 3.03z"/><path fill="#CDCDCC" d="m74.469 167.701-21.08 61 23.262 2.734 27.991-.847 3.393-66.765-33.566 3.878z"/><path fill="#EBEBEA" d="m74.469 167.7-12.094.384 3.489 27.364 8.605-27.748z"/><path fill="#CDCDCC" d="m78.951 162.975-11.629 67.976 23.748.484-6.058-69.186-6.061.726z"/><path fill="#EBEBEA" d="m75.803 231.071 9.068 1.221c1.941-10.662 6.321-37.812 10.924-59.988l.968-11.508-11.751 1.453-9.209 68.822z"/><path fill="#CDCDCC" d="m92.885 158.129-12.719 74.638 14.297-.242 18.418-3.511 2.421-72.338-22.417 1.453z"/><path fill="#EBEBEA" d="m73.779 234.088 14.26-1.441 9.935-28.232-3.51 28.111 5.694-.121.242-.121 7.877-75.124-7.877.485-6.058 32.715-20.563 43.728z"/><path fill="#FFF" d="m105.489 184.302.605-5.331-12.357 13.692-2.426 7.268 14.178-15.508v-.121zm1.21-11.271.484-5.088-10.661 11.271-1.091 5.814 11.268-11.876v-.121z"/><path fill="#CDCDCC" d="m113.97 144.679-13.813 87.725 30.657-2.662 8.967-.729 7.51-87.728-33.321 3.394z"/><path fill="#EBEBEA" d="m128.389 143.226-9.936.97-6.908 63.856 10.665-25.932 6.179-38.894z"/><path fill="#CDCDCC" d="m129.115 153.04 23.873-1.332-4.971 78.033-26.775 1.33 7.873-78.031z"/><path fill="#EBEBEA" d="m132.629 152.798 7.394-.363-5.698 36.714-6.058 20.356 4.362-56.585v-.122zm-2.541 77.79-4.852.243 5.093-17.087-.241 16.844z"/><path fill="#CDCDCC" d="m147.291 133.655-7.148 32.715-3.514 64.34 31.019 6.661 14.661-108.688-35.018 4.972z"/><path fill="#EBEBEA" d="m147.291 133.655-7.147 32.715-3.515 64.339 8.361 1.816 12.845-100.327-10.544 1.578v-.121zm1.819 99.72 3.026.606 4.484-52.104-7.631 51.379.121.119z"/><path fill="#FFF" d="m141.113 162.128-.969 4.241-.12 1.453 15.265-16.235.726-5.213-15.024 15.754h.122zm-1.332 11.751-.242 4.851 14.418-15.755.727-5.573-14.903 16.356v.121z"/><path fill="#CDCDCC" d="m160.135 236.039 5.331-75.732 19.494-32.315 15.388-2.735-4.589 113.814-18.901 2.662-16.723-5.694z"/><path fill="#FFF" d="m164.013 180.303.605-8.12 19.265-25.81-1.331 9.33-18.539 24.6z"/><path fill="#CDCDCC" d="m197.784 238.704.885-120.44 37.803-7.636-4.605 130.5-22.9-2.057-11.183-.367z"/><path fill="#EBEBEA" d="m208.604 148.921 2.783-33.2-7.266 1.454 4.483 31.746zM177.073 242.615l-17.574-98.448 29.834-16.833 19.03 90.916-5.899 23.339-25.391 1.026z"/><path fill="#FFF" d="m182.733 213.486 1.574-9.086 16.442-22.274 1.334 6-19.35 25.36zm7.029-25.677-6.804-.308 15.162-18.237 1.296 6.319-9.654 12.226z"/><path fill="#CDCDCC" d="m249.074 87.485-16.41 151.475 23.072 5.077 44.228-130.741-4.967-31.019-45.923 5.208z"/><path fill="#EBEBEA" d="m235.382 88.942-9.985 100.348-11.37 52.405 25.959 1.617 4-30.779 7.509-90.392-6.42 54.769-8.24 31.382 12.239-120.806-13.692 1.456z"/><path fill="#FFF" d="m233.079 112.327-.849 8.362 15.392-19.754.848-8.235-15.391 19.627zm-1.816 18.055-.848 8.482 15.394-19.292.962-9.912-15.508 20.722z"/><path fill="#CDCDCC" d="m257.557 106.996 33.925-3.636-13.209 140.435-31.383.243 10.667-137.042z"/><path fill="#EBEBEA" d="m260.877 86.102 10.771-1.282-9.245 159.097-15.512.121 13.986-157.936z"/><path fill="#FFF" d="m269.913 129.05-.485 7.994-15.749 20.117.605-8.362 15.629-19.87v.121zm-1.21 17.687-.486 7.878-15.991 21.206.605-7.877 15.993-21.207h-.121z"/><path fill="#CDCDCC" d="m286.878 72.34-14.661 171.092 23.143 8.966 30.051.969L340.677 69.31l-28.352-1.573-25.447 4.603z"/><path fill="#EBEBEA" d="m286.878 72.341-14.661 171.092 23.143 8.966 16.965-184.662-25.447 4.604z"/><path fill="#FFF" d="m283.484 111.843-.727 8.12 28.11-35.987.731-7.878-28.114 35.745zm-1.453 17.208-.727 8.357 27.99-37.077.847-8.845-28.11 37.565z"/><path fill="#CDCDCC" d="m340.677 69.31 10.298 187.693 45.076 4.725 11.754-207.441-41.802-2.421-.242 2.662-5.456 7.636-5.088 1.089-14.54 6.057z"/><path fill="#EBEBEA" d="m340.677 69.311-18.054 184.058 28.352 3.634 15.028-205.136-3.273 4.115-1.941 11.15-3.632 37.44.122 3.031-5.819 3.026 3.757-47.375-14.54 6.057z"/><path fill="#FFF" d="m328.801 190.481-.847 8.724 29.809-38.167.848-8.361-29.81 37.924v-.12zm-1.937 20.116-.847 7.994 30.778-40.592.605-8.115-30.536 40.713z"/><path fill="#CDCDCC" d="m899.833 221.5-14.501-37.803-13.208-1.336 8.119 42.412 19.59-3.273z"/><path fill="#CDCDCC" d="m863.887 179.334 21.444 4.363-.726 41.075-17.207.969-3.511-46.407z"/><path fill="#CDCDCC" d="m841.713 170.49 21.081 2.058 4.362 16.843 2.789 36.472-17.813 1.815h-5.209l-5.21-57.188z"/><path fill="#EBEBEA" d="m852.254 171.458 10.54 1.089 4.362 16.844.243 2.663-1.696 10.546-7.876 15.749-2.543-26.049-3.03-20.842z"/><path fill="#FFF" d="m852.253 171.458 6.178.605 6.304 7.998 2.421 9.33.121 1.332-15.024-19.265zm14.055 27.263-.605 3.878-.726 1.453-9.814-12.966-1.336-9.088 12.481 16.602v.121z"/><path fill="#CDCDCC" d="m829.837 167.217 14.54 1.815 6.787 59.01-6.787 1.336-17.087.241 2.547-62.402z"/><path fill="#CDCDCC" d="m811.42 161.401 18.659 2.542 16.724 65.798-20.723 2.662-9.693.363-4.967-71.365z"/><path fill="#EBEBEA" d="m830.079 163.943 11.838 1.666 4.886 64.132-5.456.726-7.511-31.504-3.757-35.02z"/><path fill="#CDCDCC" d="m797.002 157.645 4.604.605 36.336 72.247-21.554 4.694-16.239-.604-3.147-76.942z"/><path fill="#EBEBEA" d="m801.607 158.25 17.811 1.937 2.299 62.282-5.33 12.723-3.634-23.868-11.146-53.074z"/><path fill="#FFF" d="m801.565 158.108 5.492.748 12.932 16.243.256 7.694-18.397-23.332-.242-1.211-.041-.142zm19.706 44.177-14.819-21.134-2.184-10.177 16.489 21.693.514 9.618z"/><path fill="#CDCDCC" d="m777.873 142.471 23.249 7.902 5.814 85.06-34.756.334 5.693-93.296z"/><path fill="#CDCDCC" d="m744.897 134.623 14.906 2.179 30.896 100.449-8.363 3.272-31.383-2.905-6.056-102.995z"/><path fill="#EBEBEA" d="m759.803 136.802 25.2 3.757-6.307 86.732-4.838 2.087-3.515-31.747-10.54-60.829z"/><path fill="#FFF" d="m782.219 179.094-.489 6.903-17.203-22.054-1.699-9.45 19.391 24.601zm-1.093 15.506-.484 6.421-12.482-16.478-1.695-9.449 14.661 19.506z"/><path fill="#CDCDCC" d="m732.904 131.956 5.878.792 22.716 106.686-21.085-1.331-7.509-106.147z"/><path fill="#EBEBEA" d="m743.202 131.108 6.17.989 12.005 107.336s-6.058-8.239-6.058-.363l-4.608-.242.609-28.718-7.514-37.079-2.789-39.985 2.185-1.938z"/><path fill="#CDCDCC" d="m704.909 121.172 15.996 3.516L746.47 239.07l-13.94 5.051-23.98-4.583-3.641-118.366z"/><path fill="#EBEBEA" d="m720.906 124.688 12.725 2.785 12.839 111.598-11.751 2.663-7.151-47.376-6.662-69.67z"/><path fill="#FFF" d="m736.171 150.009.973 8.605-14.906-19.144-.727-8.241 14.66 18.659v.121zm2.185 19.023.968 8.483-15.387-20.355-.852-8.481 15.149 20.233.122.12z"/><path fill="#CDCDCC" d="m676.921 114.022 34.066 8.82 12.099 117.802-36.956-1.574-9.209-125.048z"/><path fill="#EBEBEA" d="m695.217 117.537 15.996 3.03-.121 20.355 3.511 47.378-5.937 41.319-5.088-47.016-8.361-65.066z"/><path fill="#FFF" d="m711.94 152.073.606 8.235-14.176-18.054-1.09-8.72 14.66 18.539zm1.332 18.417.605 7.994-13.083-17.203-1.092-8.846 13.57 18.176v-.121z"/><path fill="#CDCDCC" d="m619.727 83.612 45.807 9.693 22.627 132.831-37.656 16.328-30.778-158.852z"/><path fill="#EBEBEA" d="m649.053 89.789 8.603 1.817 7.388 47.622.49-45.923 12.718 2.663 13.576 144.433-34.05 1.7-4.484-65.918-4.241-86.394z"/><path fill="#CDCDCC" d="m651.598 144.073 22.78.97 5.694 96.69-20.721 1.7-7.753-99.36z"/><path fill="#CDCDCC" d="m616.579 103.966 35.987 4.726 11.751 134.741-15.023 1.695-19.265-2.301s-13.933-138.377-13.571-138.74l.121-.121z"/><path fill="#EBEBEA" d="m645.009 116.494 7.558-7.803 11.872 134.741-10.903.145-8.12-114.648-.407-12.435z"/><path fill="#FFF" d="m658.987 181.03.726 8.117-12.719-16.358-.242-7.388 12.235 15.629zm1.574 17.448.73 8.361-13.691-18.175-.242-7.877 13.203 17.691z"/><path fill="#CDCDCC" d="m583.745 71.252 17.702 3.076 11.183 9.21 4.203-6.537 9.44 1.64 7.393 112.445 1.089 54.647-39.623 2.667-11.387-177.148z"/><path fill="#EBEBEA" d="m601.435 74.399 15.386 2.667-.302 52.294 1.026 54.031-12.115-75.547-3.995-33.445zM525.946 60.586l62.402 7.393 13.935 119.107 4.892 64.479-23.142 1.693-31.803-21.65-26.284-171.022z"/><path fill="#FFF" d="m589.074 73.673 1.333 11.754-29.69 51.012-2.541-11.025 30.778-51.741h.12zm2.664 23.021 1.578 13.692-31.504 56.709-2.547-8.966 32.352-61.435h.121z"/><path fill="#CDCDCC" d="m525.945 60.586 37.682 4.483 15.632 100.089 4.773 88.1-9.746-1.731-36.954-5.432-11.387-185.509z"/><path fill="#EBEBEA" d="m516.614 82.276 43.619 11.997 11.028 84.457 3.025 72.797-66.516 8.261 8.844-177.512z"/><path fill="#FFF" d="m565.444 134.501 1.577 11.632-28.109 48.347-2.547-11.026 29.079-48.953zm3.03 22.78 1.699 13.33-30.294 54.526-2.547-8.966 31.021-58.89h.121z"/><path fill="#EBEBEA" d="m482.202 51.014 46.532 2.546 1.696 10.783 18.294 193.751-55.981 5.935-43.861 3.755 33.32-216.77z"/><path fill="#CDCDCC" d="m528.734 53.56 7.873 3.031 12.117 201.502-16.116 1.695-.969-106.385-2.905-99.843zM367.093 262.091l27.662-174.45 44.113-36.421 43.333-.207-3.026 214.23-35.019 4.242-77.063-7.394z"/><path fill="#EBEBEA" d="m367.094 262.092 15.023-176.18 17.812-35.261 38.94.57 5.287 218.264-16.722-1.7-7.51-17.69-2.599-89.359-27.528 104.043-22.703-2.687z"/><path fill="#FFF" d="m372.665 196.659 1.696-19.385 65.791-73.219.641 21.159-68.128 71.571v-.126zm2.789-32.835 1.938-23.022 61.862-74.833.513 19.235-64.313 78.62z"/><path fill="#6E7073" d="m774.222 138.864 13.448-6.788-2.909-2.663-10.903-.121-11.03 5.936 1.333 2.301 10.061 1.335z"/><path fill="#9C9FA0" d="m787.793 127.835-6.908-1.574-1.574 2.667 1.574 1.938 2.546.485 4.24.726.122-4.242zM773.254 131.713l.969 33.931-.969.121-.973-34.052h.973zM782.704 134.623l.605 30.416h-.972l-.606-30.416h.973z"/><path fill="#6E7073" d="m769.254 161.401.969 10.42 7.146.122 2.667-4.726-2.909-5.816h-7.873z"/><path fill="#9C9FA0" d="m786.095 162.491-8.968-1.089.242 10.54 8.482-.605.244-8.846z"/><path fill="#848585" d="M759.804 136.802v-6.905l21.081-3.634V130.867l-16.723 6.662-4.358-.727z"/><path fill="#4F5252" d="m808.961 232.293 12.757-9.823-48.92-2.916-40.619 5.653 50.878 18.969 25.904-11.883z"/><path fill="#848585" d="m752.29 135.713 2.469-1.65 15.099 98.098h-3.878l-13.69-96.448z"/><path fill="#8E8E8E" d="m754.758 134.063 2.138.513 13.251 96.605h-2.309l-13.08-97.118z"/><path fill="#737373" d="m743.202 140.437 13.629 13.278-9.509 14.955 13.324 10.211-12.599 11.479 15.431 11.924-11.674 18.611-.12-5.088 9.524-13.282-13.644-9.497-.364-5.456 10.594-8.562-12.534-8.762v-4.484l8.365-11.952-11.271-10.585.848-2.79z"/><path fill="#6E7073" d="m783.189 208.898.12 24.358 9.571.968 2.059-12.118-2.664-13.572-9.086.364z"/><path fill="#9C9FA0" d="m798.938 206.84 1.211 24.11-7.269 3.272-.725-25.808 6.783-1.574z"/><path fill="#4F5252" d="M786.703 212.533h2.301l.119 4.484-2.666-.122.246-4.362z"/><path fill="#737373" d="m781.132 202.498.357 8.22 10.786.484 1.453-3.636-1.695-4.847-2.303.122.121 1.331-2.301-.12-.121-1.453h-1.941v1.695l-1.961-.001.024-1.937-2.419.142z"/><path fill="#848585" d="m800.636 201.752-1.294.105.08 1.832-1.332.121-.116-1.867-2.063.293.117 1.936-1.816.364.172-2.123-2.351.307.242 8.482 8.479-2.545-.118-6.905zM749.622 228.53l-10.903-95.848 2.618-2.039 14.02 99.084-5.735-1.197z"/><path fill="#8E8E8E" d="m741.337 130.643 1.865.465 12.583 98.619-4.36.77"/><path fill="#6E7073" d="m795.181 212.413-.121 4.242 2.306-.847v-4.484l-2.185 1.089zM732.178 225.207l47.616 2.472.114 21.488-47.377-5.045-.353-18.915z"/><path fill="#848585" d="m821.717 222.469-42.892 5.209.841 21.489 43-6.833-.949-19.865z"/><path fill="#2B2B2B" d="m307.356 284.144 10.381-1.714 11.048 2.857-10.952 1.714-10.477-2.857z" opacity=".1"/><path fill="#3E8E6E" d="m314.309 284.619-4.453-6.562 3.977 2.087.476-9.143 2.286 9.618 5.524-7.428-2.191 7.618 5.762-5.086-6.905 9.086-4.476-.19z"/><path fill="#2B2B2B" d="m336.333 343.038 19.966-3.059 17.748 4.589-18.258 5.431-19.456-6.961z" opacity=".1"/><path fill="#3E8E6E" d="m350.792 343.497-10.557-13.923 9.791 6.732-2.104-13.661 6.542 14.427 3.901-12.151.401 12.182 10.041-7.229-10.825 13.929-7.19-.306z"/><path fill="#2B2B2B" d="m797.765 279.45-11.192-1.848-11.911 3.08 11.808 1.849 11.295-3.081z" opacity=".1"/><path fill="#3E8E6E" d="m790.271 279.964 7.604-8.129-7.091 3.303.466-8.928-3.444 9.441-3.181-9.066-.413 9.272-8.522-5.237 9.755 9.548 4.826-.204z"/><path fill="#2B2B2B" d="m748.142 334.619 15.571-2.572 16.573 4.286-16.429 2.572-15.715-4.286z" opacity=".1"/><path fill="#3E8E6E" d="m758.571 335.334-9.857-13 9.143 6.285.714-13.715 3.429 14.43 8.286-11.144L767 329.619l11.857-7.285-13.571 13.285-6.715-.285z"/><path fill="#2B2B2B" d="m41.143 326.334 15.571-2.572 16.572 4.286-16.429 2.572-15.714-4.286z" opacity=".1"/><path fill="#3E8E6E" d="m51.571 327.048-5.905-12.714 5.191 6 .714-13.714 3.762 11.547 7.952-8.262L60 318.334l4.5-2.333-6.215 11.333-6.714-.286z"/><path fill="#6E7073" d="m852.738 244.401 10.338-.311-2.308 48.986-5.386-.128-2.644-48.547z"/><path fill="#2B2B2B" d="m852.738 244.401 9.402 19.573-.389 8.413-7.866-5.899-1.147-22.087z" opacity=".1"/><path fill="#35785D" d="m820.265 251.915 41.875 12.059 10.956-15.211 17.565 3.757-29.979-30.829-11.456-7.353-28.961 37.577z"/><path fill="#3E8E6E" d="m862.14 263.974 28.521-11.454-23.824-36.3-14.099 18.367 9.402 29.387z"/><path fill="#3E8E6E" d="m823.296 222.711 29.442 11.877 13.207-16.118 16.965 1.683-24.792-23.938-11.114-3.249-23.708 29.745z"/><path fill="#53AE89" d="m852.738 234.588 37.866-11.785-19.321-25.048-12.311 7.865-6.234 28.968z"/><path fill="#35785D" d="m842.923 168.911-14.176 27.504 30.225 9.204 9.398-14.413 18.051 8.241-19.386-28.716-24.112-1.82z"/><path fill="#3E8E6E" d="m858.973 205.618 27.449-6.171-15.024-22.296-17.934 6.304 5.509 22.163z"/><path fill="#3E8E6E" d="m846.681 156.434-15.392 19.75 22.175 7.271 11.755-10.665 13.57 3.514-14.543-21.569-17.565 1.699z"/><path fill="#53AE89" d="m853.465 183.455 25.324-7.151-11.269-16.601-3.517.363-4.347 4.688-6.191 18.701z"/><path fill="#53AE89" d="m854.833 122.5-14.818 34.055 19.642 8.199 6.531-10.261 7.025 3.757-18.38-35.75z"/><path fill="#71C7A4" d="m859.657 164.754 13.556-6.504-18.38-35.75 4.824 42.254z"/><path fill="#6E7073" d="m46.208 233.831 12.14 1.111-3.334 41.293-5.384.025-3.422-42.429z"/><path fill="#2B2B2B" d="m49.63 233.376 8.717-.571-1.848 25.007-9.009-9.49 2.14-14.946z" opacity=".1"/><path fill="#35785D" d="m21.031 239.918 26.459 8.403 24.92-16.522 10.661 8.724-21.475-32.853-17.953-.769-22.612 33.017z"/><path fill="#3E8E6E" d="m47.49 248.321 35.581-7.798-16.944-28.664-3.894 11.578-14.743 24.884z"/><path fill="#3E8E6E" d="m23.699 214.228 38.534 9.209 9.934-13.812 11.63 6.422-29.126-26.073-7.694-3.591-23.278 27.845z"/><path fill="#53AE89" d="m62.233 223.438 21.564-7.39-18.354-26.074-10.966 3.295 7.756 30.169z"/><path fill="#35785D" d="m48.259 169.713-19.714 21.374 27.837 9.659 8.877-14.627 14.056 7.514-23.362-21.868-7.694-2.052z"/><path fill="#3E8E6E" d="m56.381 200.746 22.934-7.113-18.745-19.56-7.181 11.37 2.992 15.303z"/><path fill="#3E8E6E" d="m45.952 156.375-15.103 16.778 22.54 12.29 11.75-15.801-5.081-4.033-5.643-11.542-8.463 2.308z"/><path fill="#53AE89" d="m53.389 185.443 19.236-9.734-11.798-13.948-1.261-2.664-1.696 6.424-4.481 19.922z"/><path fill="#53AE89" d="m50.311 126.624-14.362 30.778 21.921 8.12 3.269-9.088-3.475-5.187-7.353-24.623z"/><path fill="#71C7A4" d="m57.87 165.522 11.509-6.667-19.068-32.231 7.559 38.898z"/></g><g display="block"><path fill="#737373" d="m407.58 306.413-2.395 11.37-33.855-11.285 2.396-15.217 33.854 15.132z"/><path fill="#4F5252" d="m388.088 280.508-14.363 10.772 31.461 26.503 54.201 3.249V282.56l-71.299-2.052zM488.113 288.716l40.522 28.725 11.286-11.798-14.037-45.124-37.771 28.197z"/><path fill="#737373" d="m475.802 294.358-16.415 26.674 69.248-3.59-24.621-33.856-28.212 10.772z"/><path fill="#848585" d="m428.098 257.427-3.078 37.958 34.367 25.647 44.627-37.445-75.916-26.16z"/><path fill="#8E8E8E" d="m431.175 263.582-52.577-.385-4.873 28.084 51.295 4.104 22.227-26.417-16.072-5.386z"/><path fill="#A1A1A1" d="m445.538 241.268-42.575 8.977-24.365 12.952 68.649 5.77 56.767 14.619 21.87-23.068-80.346-19.25z"/></g><g display="block"><path fill="#35785D" d="m158.93 68.584 5.089 3.877 1.937 1.938-1.574 1.331-5.452-7.146z"/><path fill="#3E8E6E" d="m172.502 71.368-8.483 1.093.363 3.269 8.725-.242 1.816-2.3-2.421-1.82z"/><path fill="#35785D" d="m183.526 63.858-11.025 7.51.605 4.12 15.993-6.541-5.573-5.089z"/></g><g display="block"><path fill="#3E8E6E" d="m188.613 57.434-5.089 6.424.242 2.663 2.547-.121.726 3.394 2.058-.847 9.573-2.547-1.089-6.783-8.968-2.183z"/><path fill="#35785D" d="m196.249 51.982-3.757.726-3.878 4.726L198.67 66.4l5.819-3.394.485-3.995-1.211-4.971-7.514-2.058z"/></g><g display="block"><path fill="#53AE89" d="m182.558 76.824 6.54-7.877-2.784-2.547-3.756 10.424z"/><path fill="#53AE89" d="M175.769 76.824 186.315 66.4l-1.578-1.331-1.211-1.211-7.757 12.966z"/></g><g display="block"><path fill="#53AE89" d="m215.999 56.95-11.024 2.062-6.304 7.388 10.907-.847 6.421-5.936.968-.847-.968-1.82z"/><path fill="#3E8E6E" d="m231.51 67.127-15.512-10.176v2.666l6.545 8.24 7.268-.121.968.243.731-.852z"/><path fill="#35785D" d="m198.67 66.4 14.06 2.063 6.662 8.114 15.996 2.548-3.878-11.997-15.512-7.511-8.724 3.389-8.604 3.394z"/><path fill="#3E8E6E" d="m212.73 68.462 6.662 8.115-3.393-16.96-3.269 8.845z"/></g><g display="block"><path fill="#53AE89" d="m199.28 37.684-3.031 14.298-7.635 5.452 4.363-10.784-.485-4.603 3.637-4.485 3.151.122z"/><path fill="#3E8E6E" d="m172.622 39.137-9.209-12.844 3.873-2.785.3.041 20.18 2.744 8.361 12.724-3.152 7.635-7.025-.605-13.328-6.91z"/><path fill="#35785D" d="m188.372 25.566 10.907 12.119-3.151 1.331-9.088-12.118-.121-.969 1.453-.363z"/><path fill="#53AE89" d="m188.372 25.566-1.332 1.332-20.358-2.905.605-.485 21.085 2.058z"/><path fill="#35785D" d="m185.951 46.046-13.33-6.909 14.42-12.239-1.09 19.148z"/></g><g display="block"><path fill="#3E8E6E" d="m211.757 51.618-3.269-1.815-5.335 1.936-6.904.242 8.724 7.03 6.784-7.393z"/><path fill="#35785D" d="m209.093 47.741-5.94 4 8.603-.121.847-2.789-3.51-1.09z"/></g><g display="block"><path fill="#35785D" d="m209.213 42.652-1.82 1.09 1.82 1.457-.121 2.542 2.905 1.089 1.578-2.057 8.968-1.82-1.457-4.359-11.873 2.058z"/><path fill="#3E8E6E" d="m201.337 44.467 5.815-1.331.484-1.09 1.577.607v2.545l-7.876-.731z"/><path fill="#53AE89" d="m205.578 39.863 3.636 2.789-1.094.243-.968.242-1.574-3.274zM213.576 46.771l6.783 2.059-1.332 2.424-7.27.365-2.664-3.878 2.664-.607 1.819-.363z"/></g><g display="block"><path fill="#6F9C52" d="m115.939 180.025-8.743-29.33 2.825-.806 8.073 29.464-2.155.672z"/><path fill="#5A753C" d="m95.488 133.073 4.575 16.414 8.746 1.746.405-7.935-5.114-6.596-8.612-3.629z"/><path fill="#446024" d="m108.541 127.149-4.44 9.552 4.709 14.532 6.323-6.994-6.592-17.09z"/><path fill="#6F9C52" d="m130.872 175.046-8.607-29.33 2.688-.806 8.208 29.464-2.289.672z"/><path fill="#5A753C" d="m110.558 127.961 4.575 16.278 8.612 2.016.401-7.8-4.976-6.73-8.612-3.764z"/><path fill="#446024" d="m123.609 122.037-4.44 9.688 4.575 14.53 4.977-5.784-5.112-18.434z"/><path fill="#6F9C52" d="m121.05 170.741-8.607-29.329 2.689-.807 8.073 29.464-2.155.672z"/><path fill="#5A753C" d="m99.661 123.253 5.65 17.353 8.611 1.343.807-8.069-5.381-6.456-9.687-4.171z"/><path fill="#446024" d="m114.863 115.985-5.515 11.439 4.574 14.525 6.322-6.725-5.381-19.239z"/><path fill="#464646" d="m109.482 167.106 11.838 42.786 21.798-7.538-10.897-42.78-22.739 7.532z"/><path fill="#464646" d="m109.482 167.107 4.037 14.262 19.643-18.026-16.821 1.479-6.859 2.285z"/><path fill="#8E8E8E" d="m103.43 161.323 2.687 10.224 30.543-9.283-2.961-10.897-30.269 9.956z"/></g><g display="block"><path fill="#6F9C52" d="m117.185 188.036 19.329-8.764 33.633-.643 18.814 8.373-8.764 49.486-24.997 4.119-29.38-2.704-8.635-49.867z"/><path fill="#446024" d="m125.563 243.573.256-5.67 54.378-1.415.386 5.797-26.671 5.025-28.349-3.737zM115.365 188.193l-7.2 35.149 22.68-6.441-6.055-32.345-9.425 3.637z"/><path fill="#CFAA91" d="m142.703 237.389-16.882.514-17.655-14.561 14.431-4.124 9.665-10.824 12.887 4.382 28.221-7.991 5.798 6.186-6.57 14.044-15.849 2.194-14.046 10.18z"/><path fill="#DEBBA3" d="m117.572 207.623 9.536-9.793 10.956 11.466-2.193 6.183-13.274 3.739-5.025-11.595z"/><path fill="#C2967A" d="m145.665 212.647-18.558-14.818 8.764 17.65 9.794-2.832zM156.749 227.209l23.448 9.279 8.249 2.446 1.803-17.137-11.081-10.827-22.419 16.239z"/><path fill="#DEBBA3" d="m200.562 225.66-9.666-16.106-11.728 1.417 9.278 27.963 12.116-13.274z"/><path fill="#446024" d="m188.962 187.002 11.6 38.658-21.394-14.69 9.794-23.968z"/><path fill="#5A753C" d="m145.15 212.776 15.075-4.252-1.802-13.918-21.908-15.334-11.724 5.284 2.317 13.273 18.042 14.947z"/></g><g display="block"><path fill="#446024" d="m177.915 306.131-9.274 6-.183 4.819 31.368.183v-5.455l-21.911-5.547zM123.182 312.587l-6.637 3.364-.182 4.273 24.548.091-.091-4.364-17.638-3.364z"/><path fill="#6F9C52" d="m175.187 294.403 13.728 6.183 10.91 11.092-31.184.455.272-9.275 6.274-8.455zM135.093 297.404l3.817 6 1.91 12.546h-24.274l2.455-12.001 16.092-6.545z"/><path fill="#4F5252" d="m138.911 303.404 4.909-21.912-10.456-1.545-11.924 2.283-2.44 21.719 19.911-.545z"/><path fill="#2B2B2B" d="m141.457 292.312 2.364-10.819-10.456-1.546-11.925 2.283 20.017 10.082z" opacity=".1"/><path fill="#4F5252" d="m168.913 302.859-5.91-22.093 3.819-6.047 19.275 5.183 2.818 20.685-20.002 2.272z"/><path fill="#2B2B2B" d="m165.731 291.04-2.728-10.273 3.819-6.047 19.275 5.183-20.366 11.137z" opacity=".1"/><path fill="#738B56" d="M121.44 282.231c.258-1.03 4.252-38.657 4.252-38.657l28.479-.644 26.543-.645-15.977 26.929-43.297 13.017z"/><path fill="#446024" d="m186.098 279.902-5.512-37.617-23.401 15.66-2.371 13.205 8.19 9.617 23.094-.865z"/><path fill="#5A753C" d="m121.439 282.231 41.564-1.465-5.818-22.821-7.139 4.957-28.607 19.329z"/></g><g display="block"><path fill="#DEBBA3" d="m150.904 113.873 15.084-.945 21.643-1.614 2.706 60.501-15.74.811-16.277 13.72-11.166-3.764-12.783-15.476-2.127-15.876-1.139-11.533 4.745-8.512 6.865 12.65 5.246-3.634-15.351-17.581 18.294-8.747z"/><path fill="#C2967A" d="m150.904 113.873 4.588 60.231-10.091 11.435-9.821-6.86-6.858-29.463-3.366-12.649 5.748-8.688 14.836 12.456-12.256-18.257 17.22-8.205z"/><path fill="#896651" d="m135.178 143.567-1.479-6.188-6.053 1.478 7.532 4.71zM128.722 149.215l8.476-3.096-5.653 14.532-2.823-11.436z"/><path fill="#C2967A" d="m158.086 128.448 6.689 5.492 4.843 14.53-1.478-19.911-10.054-.111zM175.269 128.151l.941 13.725 3.768-10.36 4.377-3.78-9.086.415z"/><path fill="#896651" d="m151.455 174.373-6.054 11.166 13.053 9.149 16.143-22.062-23.142 1.747z"/><path fill="#464646" d="m175 125.597 9.426-1.492-.071 3.631-9.086.415-.269-2.554zM167.872 125.866l-10.569-2.258.783 4.84 10.055.11-.269-2.692zM156.553 98.537l-19.911 9.822 7.536 5.247 6.726.268 16.318.195-.713-4.5-9.956-11.032z"/><path fill="#737373" d="m136.642 108.359-17.084 9.417 9.687 4.167 5.919.678 15.74-8.747-14.262-5.515z"/><path fill="#2B2B2B" d="m119.558 117.775 5.799 18.792 10.493-3.226 3.365 11.972 8.611-3.096-12.662-19.597-15.606-4.845z"/><path fill="#8E8E8E" d="m167.223 114.069-10.669-15.532 31.076 12.779-20.407 2.753z"/><path fill="#2B2B2B" d="M165.431 134.709a2.457 2.457 0 1 1-4.795 1.076 2.457 2.457 0 0 1 4.795-1.076zM182.588 133.57a2.457 2.457 0 1 1-4.795 1.076 2.457 2.457 0 0 1 4.795-1.076z"/><path fill="#896651" d="m178.447 154.361 9.112 3.917-13.882 3.203-14.666-1.638 19.436-5.482z"/><path fill="#464646" d="m172.751 149.307-3.132-.836-10.608 11.373 28.548-1.567-10.946-10.349-3.862 1.379z"/><path fill="#2B2B2B" d="m176.613 147.928-3.495 3.5-3.499-2.958 6.994-.542z"/><path fill="#E7C8B5" d="m175.269 128.151-7.128.409 1.478 19.911 6.994-.543-1.344-19.777z"/></g><g display="block"><path fill="#35785D" d="m280.594 298.853 14.021 3.078-.128 4.232-30.649.043-.171-4.275 16.927-3.078z"/><path fill="#53AE89" d="m274.096 282.78 7.865 6.326 12.653 12.824h-30.948l.171-8.207 10.259-10.943z"/><path fill="#35785D" d="m237.335 301.759 3.59 4.873-.17 4.788-25.563.085-.191-4.873 22.334-4.873z"/><path fill="#53AE89" d="m236.822 290.133 1.71 5.471 2.394 11.029H215l3.698-11.2 18.124-5.3z"/><path fill="#4F5252" d="m261.444 260.723 16.927 8.891 3.591 19.492-18.124 4.617-12.14-29.922 9.746-3.078z"/><path fill="#2B2B2B" d="m261.443 260.723 16.927 8.891-20.176 10.259-6.497-16.072 9.746-3.078z" opacity=".1"/><path fill="#4F5252" d="m234.086 246.19-9.832 24.964-5.556 24.279 19.834.171 14.362-34.367-5.642-3.078-13.166-11.969z"/><path fill="#2B2B2B" d="m234.086 246.19-9.832 24.964 20.946 8.677 7.694-18.594-5.642-3.078-13.166-11.969z" opacity=".1"/><path fill="#35785D" d="m244.516 247.301 30.264-6.925 3.59 29.238-54.116 1.54 13.889-16.352 6.373-7.501z"/><path fill="#3E8E6E" d="m255.459 226.869 19.321 13.508-50.526 30.778 5.899-31.034 5.802-16.251 19.504 2.999z"/></g><g display="block"><path fill="#FBE2D3" d="m204.613 251.81-8.848 1.026 1.667 12.567 13.208 1.539 2.052-10.13-2.436-4.873 5.899 3.59 2.436-.769-4.232-10.002-9.746 7.052z"/><path fill="#EDD2C1" d="m204.1 236.679-3.591 4.104-4.744 12.054 16.927 3.974 1.667-12.054-10.259-8.078z"/><path fill="#53AE89" d="m216.283 213.34-8.72 4.104-7.054 23.338 13.85 3.976 7.438-16.671-5.514-14.747z"/><path fill="#3E8E6E" d="m244.174 193.014-19.578-4.53-17.034 28.959 13.401 12.375 7.652-6.881 15.559-29.923z"/></g><g display="block"><path fill="#F4C8B1" d="m320.304 135.361 4.232-2.533 5.129-16.073-14.021-5.642-4.36 7.608-4.435 7.001 13.455 9.639z"/><path fill="#C1907C" d="m306.849 125.721 17.686 7.107-8.036 13.765-9.105-1.732-.545-19.14z"/><path fill="#FBE2D3" d="m306.498 150.184-3.848-11.285-.513-8.55 3.676-12.909 5.473 1.282-.974 10.944 3.367 10.259-7.181 10.259z"/></g><path fill="#53AE89" d="m279.055 180.704 26.672-1.197 10.772-32.915-13.849-6.412-23.595 40.524z" display="block"/><path fill="#3E8E6E" d="m270.847 216.353 13.337-9.489 21.543-27.359-23.082-22.142-18.21 26.931 6.412 32.059z" display="block"/><path fill="#35785D" d="m263.666 221.74 12.14 11.968-1.026 6.668-44.627-.256-.513-5.899 34.026-12.481z" display="block"/><g display="block"><path fill="#3E8E6E" d="m241.096 208.66-13.336 7.779 1.88 17.782 46.165-.513 8.379-26.843-43.088 1.795z"/><path fill="#53AE89" d="m246.225 174.89-7.01 7.181-14.62 6.412 4.019 34.453 55.569-16.072-1.282-29.751-16.158 2.051-20.518-4.274z"/></g><g display="block"><path fill="#FBE2D3" d="m238.205 169.516 5.186 15.012 13.277.338 12.031 3.381 6.338-4.875 3.815-4.029 13.641-.56 3.788-60.7-50.427-.27-7.649 51.703z"/><path fill="#F4C8B1" d="m256.534 139.037 9.328 5.543 6.758 11.759 7.569-.134 4.732-11.625 9.463-6.623-14.195.27-1.757 1.081-6.082.27-3.381-.812-12.435.271zM238.205 169.516l1.01 12.555 12.269 9.532 2.749-12.009-1.351-52.587-7.028-9.194-7.649 51.703z"/><path fill="#C1907C" d="m275.61 183.563 16.884-4.779-38.261.81-5.677.945 2.928 11.065 13.208 8.334 10.918-16.375zM238.205 169.516l4.462-12.472-7.374 3.687 2.912 8.785z"/><path fill="#2B2B2B" d="m276.947 126.737 17.707-9.463 7.482-17.103-57.907 19.129-18.219 13.235 5.14 15.847 10.972 2.187 5.899-.963 4.862-22.597 24.064-.272z"/><path fill="#464646" d="m302.137 100.171-69.676 10.43 7.44 13.295 12.981 3.111 49.255-26.836z"/><path fill="#FBE2D3" d="m241.289 143.784-10.139 4.597 4.3 12.643 11.354-5.002-5.515-12.238z"/><path fill="#C1907C" d="m237.908 148.921-3.517 1.49 6.416 4.518-2.899-6.008z"/><path fill="#8E8E8E" d="m295.469 130.264 6.668-30.092-25.19 26.566 18.522 3.526z"/><path fill="#737373" d="m226.011 132.535 26.872-5.526-7.433-6.629-12.988-9.779-6.451 21.934z"/><path fill="#464646" d="m256.534 139.037 7.027-4.326 5.407 4.056-12.434.27zM280.189 138.227l7.842-5.408 6.352 5.138-14.194.27z"/><path fill="#FFEEE7" d="m272.35 139.577 6.082-.27 1.756 16.897-7.568.135-.27-16.762z"/><path fill="#C1907C" d="m276.812 160.125-4.191-3.786 7.568-.134-3.377 3.92zM264.237 163.642l11.446-.191 12.754-.214-4.462 10.41h-15.547l-4.191-10.005z"/><path fill="#FFF" d="M266.403 165.128h18.248l-1.217 3.247-15.006.405-2.025-3.652z"/><path d="M268.886 145.434a2.838 2.838 0 1 1-5.675.001 2.838 2.838 0 0 1 5.675-.001zM287.438 145.054a2.837 2.837 0 1 1-5.675 0 2.837 2.837 0 0 1 5.675 0z"/></g><g display="block"><path fill="#35785D" d="m629.654 201.478 10.771-4.104 11.825 8.296 8.966 14.781-8.927 18.234-8.724 2.299-9.33-.847-6.208-3.929.031-5.28 1.596-29.45z"/><path fill="#3E8E6E" d="m680.724 207.245-1.145 28.942-28.501 9.281 1.171-39.798 28.475 1.575z"/><path fill="#53AE89" d="m636.426 176.977 47.206 8.94 1.091 7.272-3.151 20.112-2.18 2.91-27.143-10.541-22.596-4.192-3.334-12.054 10.107-12.447z"/></g><g display="block"><path fill="#5A753C" d="m616.034 304.469-17.568 1.411-.128 4.488 36.163.385.031-4.04-18.498-2.244z"/><path fill="#6F9C52" d="m623.728 284.977-7.95 8.207-17.313 12.696 36.067.833 1.251-8.143-12.055-13.593z"/><path fill="#5A753C" d="m681.179 309.513 11.797 3.933.171 3.675-24.152-.213-.084-3.505 12.268-3.89z"/><path fill="#6F9C52" d="m680.922 291.388-9.232 10.517-2.779 11.498 24.066.043-2.309-13.08-9.746-8.978z"/><path fill="#4F5252" d="m690.668 300.366-3.658-19.309-10.177-7.998-13.935 3.636 8.791 25.21 18.979-1.539z"/><path fill="#2B2B2B" d="m687.01 281.057-10.177-7.998-13.935 3.636 3.815 10.702 20.297-6.34z" opacity=".1"/><path fill="#4F5252" d="m615.778 293.185 4.591-22.673 10.472-11.595 14.245 12.809-9.303 26.845-20.005-5.386z"/><path fill="#2B2B2B" d="m620.369 270.512 10.473-11.595 14.244 12.809-4.661 13.362-20.056-14.576z" opacity=".1"/><path fill="#35785D" d="m626.238 240.984 1.819-10.056 51.523 5.26-.028 10.132-27.384 7.63-25.93-12.966z"/><path fill="#53AE89" d="m620.369 270.512 34.829-17.41 7.147 17.934.552 5.66-42.528-6.184z"/><path fill="#3E8E6E" d="m679.553 246.32 7.456 34.736-24.111-4.361-11.495-19.006 28.15-11.369z"/><path fill="#35785D" d="m620.369 270.512 5.868-29.528 53.316 5.336-59.184 24.192z"/></g><g display="block"><path fill="#3E8E6E" d="m706.082 212.891-22.45-26.974-4.24 30.294 8.224 6.298 12.055 3.59 6.411-13.208z"/><path fill="#A67D61" d="m714.81 247.961 4.772 1.535.905 11.207-9.297 2.457-4.608-7.523-.247-7.216-5.018 5.373-2.716-2.072 3.253-7.728 12.956 3.967z"/><path fill="#BE9B83" d="m708.64 237.598 5.437 2.308 5.506 9.59-13 6.142-4.728-11.644 6.785-6.396z"/><path fill="#35785D" d="m714.076 239.907-7.994-27.015-18.466 9.617 14.365 22.213 12.095-4.815z"/></g><path fill="#3E8E6E" d="m604.197 176.857 25.456 24.621 6.772-24.501-14.78-13.449-11.997-3-5.451 16.329z" display="block"/><path fill="#35785D" d="m604.397 135.999-.2 40.859 17.336-12.995-4.417-28.227-12.719.363z" display="block"/><g display="block"><path fill="#BE9B83" d="m661.108 122.652-15.813-9.276-6.714 1.325-2.76 8.334.12 8.265-5.758 37.062 17.03 3.752 20.032.88 8.764-35.06 1.506-16.4-13.898-1.381-2.509 2.499z"/><path fill="#A67D61" d="m671.29 133.731-10.142 3.632-7.64 11.774.876-8.146 1.251-5.884 4.512-2.502 11.143 1.126zM647.693 131.204l2.558 3.653.63 4.132-3.382 9.298-1.505-11.929-8.66-5.343 6.535-.7 3.824.889z"/><path fill="#464646" d="m660.56 128.255 11.283 2.693-.554 2.784-11.142-1.126.412-4.351zM647.821 131.161l.428-3.846-10.516 1.196-.4 2.504 10.488.146z"/><path fill="#C7AC9A" d="m650.251 134.857-2.752 13.43 2.628 1.272 3.381-.423 2.127-14.068-5.384-.211z"/><path fill="#A67D61" d="m677.515 121.534 8.511 9.766-2.126 7.885-5.384 9.766 2.501.63 1.631 2.627 2.877-2.252 2.381-5.383 2.752 4.128 3.381 1.755-4.756 4.258-2.132 4.883-1.25 3.127-7.428 22.183-9.485 3.884-17.519-5.155-.25-6.764-21.036-8.51 37.061 4.632 6.514-36.561 3.757-14.899z"/><path fill="#A67D61" d="m682.648 152.208-1.256 3.006 5.759 4.383 6.889-9.14-6.134-5.884-5.258 7.635z"/><path fill="#464646" d="m635.821 131.925-3.734-18.328 2.729.797 3.677.837-2.672 16.694z"/><path fill="#737373" d="m661.108 122.652-29.02-9.055 15.901-14.709 13.872 12.75-.753 11.014z"/><path fill="#8E8E8E" d="m661.108 122.652 1.63-13.265 26.064-4.271 11.382 12.687-11.527 4.357-11.142-.626-16.407 1.118z"/><path fill="#737373" d="m700.184 117.803-.384 31.572-10.6-8.083-3.175-9.992-8.51-9.767 22.67-3.73z"/><path fill="#464646" d="m686.026 131.3-7.51 17.651 4.132 3.257 5.257-7.635 6.134 5.883 5.761-1.081-13.774-18.075z"/><path fill="#825840" d="m690.784 150.957-2.254-2.131-2.63 4.632 4.884-2.501zM687.151 159.596l-4.128-3.131.625 13.273 3.503-10.142zM647.5 148.287l3.001 3.386 3.007-2.536-6.008-.85z"/><path fill="#A67D61" d="m667.292 189.488-11.67-14.299 22.762 9.682-11.092 4.617z"/><path fill="#825840" d="m673.633 173.62-43.45-5.258 15.023 6.058 10.203 19.876 11.728-4.969 6.496-15.707zM640.221 152.945l22.038 2.131-7.093 8.279-10.799-1.06-4.146-9.35z"/><path fill="#FFF" d="m642.513 154.411 1.655 3.71 11.831 1.338 2.812-3.193-16.298-1.855z"/><path fill="#464646" d="m688.802 105.116-40.812-6.228 13.12 23.764 27.692-17.536zM709.315 173.244l-15.275-22.788-6.889 9.141 8.516 28.546 13.648-14.899z"/><path fill="#737373" d="m698.423 156.965-4.384-6.509-6.888 9.14 2.381 8.136 8.891-10.767z"/><path d="M646.322 137.14a2.485 2.485 0 1 1-4.97-.002 2.485 2.485 0 0 1 4.97.002zM664.343 138.962a2.485 2.485 0 1 1-4.97-.002 2.485 2.485 0 0 1 4.97.002z"/></g><g display="block"><path fill="#4F5252" d="m596.278 134.422 52.342-48.587 3.878 4.237-52.342 48.591-3.878-4.241z"/><path fill="#737373" d="M600.398 143.025c2.663-2.421 2.784-6.663.363-9.209-2.426-2.663-6.666-2.789-9.209-.363-2.667 2.425-2.788 6.663-.362 9.21 2.42 2.667 6.662 2.787 9.208.362z"/><path fill="#A1A1A1" d="m661.102 65.235 10.178 3.151-3.516 11.025-50.042 45.196-9.572-10.298 52.952-49.074z"/><path fill="#8E8E8E" d="m620.753 128.001-6.179-6.666 56.705-52.948 2.425 10.54-52.951 49.074z"/><path fill="#737373" d="m628.387 133.937-25.568-27.626-2.3 2.058 25.563 27.63 2.305-2.062z"/><path fill="#737373" d="m618.331 125.333.363-7.752-7.877-.366-.241 7.877 7.755.241z"/><path fill="#BE9B83" d="m594.821 127.033 12.36-11.392 8.966 9.693-11.75 10.665-9.576-8.966z"/><path fill="#A67D61" d="m617.117 135.636-.969-10.303-11.751 10.666 12.72-.363z"/></g><g display="block"><path fill="#B7C545" d="m498.542 99.343 20.243 13.94 1.315 16.569-13.847 24.607-93.103-16.926.773-28.558 10.097-6.121 74.522-3.511z"/><path fill="#E7EE78" d="m424.021 102.854 74.521-3.511 20.244 13.939 1.314 16.569-11.629-8.008-86.268-7.166-8.281-5.702 10.099-6.121z"/><path fill="#446024" d="m423.956 237.784-7.904-18.31.1-81.942 15.608 2.101 25.108 1.503 45.029-1.904 15.996 113.655-15.172 13.215-69.77-12.609-26.104-5.804 17.109-9.905z"/><path fill="#5A753C" d="m497.295 150.838 9.405-20.81 18.383 129.684-9.591-2.95-5.172-9.34-13.025-96.584z"/><path fill="#6F9C52" d="m502.721 266.102 22.362-6.39-14.762-12.29-7.6 18.68z"/></g><path fill="#2B2B2B" d="m424.52 72.873-2.317 41.804-.182 24.494 12.863-6.657-.424-18.904 1.963-44.827-11.903 4.09z" display="block"/><g display="block"><path fill="#896651" d="m375.923 148.997-5.604 4.039-8.254-2.009 2.892-14.593 10.966 12.563z"/><path fill="#4F5252" d="m399.295 27.817-6.344-1.832-37.6 130.19 6.344 1.832 37.6-130.19z"/><path fill="#737373" d="M364.315 159.187a6.146 6.146 0 1 0-11.81-3.409 6.146 6.146 0 0 0 11.81 3.409z"/><path fill="#A1A1A1" d="m386.373 21.627 11.527-1.751 3.234 11.823-28.076 86.967-13.556-3.997 26.871-93.042z"/><path fill="#8E8E8E" d="m379.85 120.545-9.942-2.87 27.993-97.798 8.819 7.626-26.87 93.042z"/><path fill="#737373" d="m391.837 118.023 4.044 8.741-7.814 4.311-4.085-7.403-10.236-2.956-5.611 3.097-3.097-5.612-9.308-2.688-7.404 4.085-5.239-8.081 9.009-4.972 2.251 4.866 11.678 3.373 5.611-3.097 3.097 5.611 12.605 3.641 4.499-2.916z"/><path fill="#C2967A" d="m359.901 127.479 9.087 7.188-4.351 16.994-11.819-2.482 7.083-21.7z"/><path fill="#DEBBA3" d="m380.538 144.572-5.658-7.679-4.664-8.403-10.716 6.211 2.33 3.322 5.149-1.71.307 7.184 8.001 4.797 5.251-3.722z"/><path fill="#53AE89" d="m415.752 153.24-14.608-11.806-26.265-4.542-4.561 16.144 37.429 14.512 8.005-14.308z"/></g><path fill="#5A753C" d="m429.314 128.53-7.111-13.852-21.059 26.756 6.603 26.114 21.312-17.709.255-21.309z" display="block"/><g display="block"><path fill="#5A753C" d="m492.626 116.095-23.158 12.134-21.015 16.207 11.302 43.633 29.745 9.5.617-9.5.275-10.115 6.903-27.115-4.669-34.744z"/><path fill="#6F9C52" d="m456.868 141.136 2.882 43.896.005 3.036h-30.442l-.083-14.263-7.027-59.127 14.849-1.396.531 6.177 6.312-.298 3.315 14.271 9.658 7.704z"/></g><path fill="#738B56" d="m525.309 117.022-13.007-16.009-22.021 13.719-5.182-.761 5.814 20.738 6.381 16.13 28.015-33.817z" display="block"/><g display="block"><path fill="#35785D" d="m457.141 135.605-8.386-8.703-4.86-7.741-8.847 1.289.774 13.058 21.047 7.629 4.991-4.463-4.719-1.069z"/><path fill="#53AE89" d="m457.14 135.605-.272 5.531 34.044-6.427 2.38-21.49-8.255-1.501-8.469 11.509-19.428 12.378z"/></g><path fill="#2B2B2B" d="m487.14 112.469 2.179-30.695 4.075-8.465 7.71 3.555.642 30.903-8.454 5.452-6.152-.75z" display="block"/><g display="block"><path fill="#C2967A" d="m440.981 120.169 40.321-5.299 5.759 3.291-1.44 9.166-28.481 8.279-14.82-7.285-1.339-8.152z"/><path fill="#896651" d="m455.505 130.926-14.524-10.756-1.39-12.55 47.47 10.542-31.556 12.764z"/><path fill="#DEBBA3" d="m435.047 120.449 39.41-1.858 11.163-7.971 5.293-60.516-61.614-2.655 5.748 73z"/><path fill="#C2967A" d="m481.302 114.87 4.849-58.873 7.243-11.531-6.333 73.696-5.759-3.292z"/><path fill="#896651" d="m463.256 95.586-5.781 3.956-5.783-3.956h11.564z"/><path fill="#C2967A" d="m481.33 80.417-12.087 3.715-5.987 11.455-3.412-18.503 17.22-1.563 4.266 4.896zM451.693 95.586l-8.595-11.454-9.479-3.714 4.263-2.685 7.823-.869 9.398.22v11.468l-3.41 7.034z"/><path fill="#E7C8B5" d="m451.693 95.586 5.78 1.455 5.782-1.455-3.412-18.503h-4.74l-3.41 18.503z"/><path fill="#464646" d="m455.104 77.083-17.222.651-4.264 2.683 4.264-7.108 17.222 3.774zM459.845 77.083l17.22.651 4.264 2.683-4.264-7.108-17.22 3.774z"/><path fill="#4F5252" d="m501.104 76.863-1.224-30.679-12.82-3.199-10.062-7.664H442.64l-7.594 9.145-13.116 5.638 2.589 22.77 6.876 1.191-1.587-21.38 26.59 8.707 28.763-12.948 4.859 37.109 11.084-8.69z"/><path fill="#6E7073" d="m456.399 61.392 20.6-26.07 22.882 10.863-13.73 9.813-29.752 5.394z"/><path fill="#C2967A" d="m482.519 100.098-48.852 2.835 1.379 17.517 46.283-2.039 1.19-18.313z"/><path fill="#464646" d="m442.641 35.321 13.758 26.072-26.36-5.594-8.108-5.694 20.71-14.784z"/><path fill="#B38A70" d="m482.519 100.098 6.312-2.534-1.77 20.598-5.732.25 1.19-18.314z"/><path fill="#2B2B2B" d="M442.776 84.131a2.93 2.93 0 1 0 5.86 0 2.93 2.93 0 0 0-5.86 0zM469.032 84.131a2.93 2.93 0 1 0 5.86 0 2.93 2.93 0 0 0-5.86 0z"/><path fill="#896651" d="m446.393 104.439 23.788-1.351-4.803 11.183-13.132.675-5.853-10.507z"/><path fill="#FFF" d="m449.545 105.865 17.82-1.013-1.913 4.577-13.657.789-2.25-4.353z"/></g><g display="block"><path fill="#C2967A" d="m534.915 65.595 4.631-4.064 1.172-15.345-14.008-5.004-7.404 12.808 7.204 12.406 8.405-.801z"/><path fill="#896651" d="m519.507 56.19 20.038 5.34-6.831 16.472-12.207 1.2-1-23.012z"/><path fill="#DEBBA3" d="m519.107 88.206-1.202-17.608-2.199-9.806 3.2-12.607 4.602 2.401-1.2 9.405 4.002 8.205-6.203 20.611-1-.601z"/><path fill="#53AE89" d="m517.905 70.597-11.556 34.069 18.96 12.357 7.404-39.021-14.808-7.405z"/></g><g display="block"><path fill="#446024" d="m446.869 223.477.4 11.206 14.207 7.404 12.407-30.016-21.112-8.604-5.902 20.01z"/><path fill="#3E8E6E" d="m416.024 218.975 19.524 7.948-2.895 14.358h-10.047l-6.582-5.702v-16.604z"/><path fill="#53AE89" d="m416.023 235.579-12.488 12.383 12.065 2.733 17.351-2.733-.299-6.68-16.629-5.703z"/><path fill="#3E8E6E" d="M403.535 253.494h29.416v-5.534h-24.813l-9.749-3.674 5.146 9.208z"/><path fill="#35785D" d="m416.024 218.975 17.899 15.286 1.625-7.337-9.763-7.949h-9.761z"/><path fill="#5A753C" d="m459.756 188.068 2.921 19.801-15.408 26.814-31.216-15.208 13.261-30.194 11.668-5.192 18.774 3.979z"/><path fill="#3E8E6E" d="m474.459 243.282 3.064 12.208 10.056 1.199 9.022-3.802-1.539-14.14-20.603 4.535z"/><path fill="#53AE89" d="m496.601 252.887 6.12 13.215h-25.616l.418-10.613 19.078-2.602z"/><path fill="#3E8E6E" d="M477.106 270.699h25.614v-4.597l-12.807-3.935-12.807 3.935v4.597z"/><path fill="#35785D" d="m495.062 238.747-19 10.921-1.604-6.386 6.318-5.6 14.286 1.065z"/><path fill="#6F9C52" d="m490.862 198.997 4.2 39.75-33.586 3.339-1.72-54.018 31.106 10.929z"/></g><path fill="#97C16C" d="m490.118 188.068-60.91-6.113-.901 9.305 62.554 7.737-.743-10.929z" display="block"/></g></svg>