<svg class="icon" viewBox="0 0 1024 1024" version="1.1" xmlns="http://www.w3.org/2000/svg" width="200" height="200"><path d="M953.6 501.184l-37.568-23.232c0-3.648-0.64-7.296-1.088-10.944l32-30.144a12.8 12.8 0 0 0-4.288-21.568l-41.28-15.424-3.2-10.688 25.6-35.776a12.8 12.8 0 0 0 1.472-12.8 12.8 12.8 0 0 0-9.536-7.808l-43.52-7.104c-1.664-3.328-3.456-6.4-5.248-9.792l18.304-40.192a12.8 12.8 0 0 0-12.224-18.304l-44.16 1.536-6.976-8.512 10.112-42.688A12.8 12.8 0 0 0 816.512 192l-43.008 10.176c-2.816-2.24-5.504-4.544-8.512-6.848l1.536-44.16a12.8 12.8 0 0 0-5.696-11.2 12.8 12.8 0 0 0-12.8-1.024l-40.192 18.304-9.792-5.248-6.848-43.52a12.8 12.8 0 0 0-7.872-9.856 12.8 12.8 0 0 0-12.8 1.472l-35.776 25.6-10.624-3.2-15.04-41.216a12.8 12.8 0 0 0-21.568-4.48l-30.144 32.32-10.944-0.896-23.296-37.824a12.8 12.8 0 0 0-22.016 0l-23.232 37.568-10.688 1.344-30.4-32.512a12.8 12.8 0 0 0-21.568 4.288l-15.488 41.28-10.624 3.2-35.776-25.6a12.8 12.8 0 0 0-20.352 8.384l-7.104 43.52-9.728 5.376-40.192-18.304a12.8 12.8 0 0 0-12.8 1.024 12.8 12.8 0 0 0-5.696 11.2l1.536 44.16-8.512 6.976L207.68 192A12.8 12.8 0 0 0 192 207.744l10.304 43.072a309.12 309.12 0 0 0-6.976 8.512l-44.16-1.536a12.8 12.8 0 0 0-12.224 18.304l18.304 40.064c-1.792 3.2-3.52 6.4-5.248 9.792l-43.52 6.848a12.8 12.8 0 0 0-8.384 20.352l25.6 35.776a520.832 520.832 0 0 0-3.2 10.688l-41.216 15.68a12.8 12.8 0 0 0-4.288 21.568l32.32 30.336c-0.512 3.456-0.512 7.104-1.088 10.752l-37.824 23.232a12.8 12.8 0 0 0 0 22.016l37.824 23.232c0.576 3.968 0.576 7.36 1.088 10.944L76.8 587.52a12.8 12.8 0 0 0 4.288 21.568l41.472 15.488 3.2 10.688-25.6 35.776a12.8 12.8 0 0 0-1.472 12.48 12.8 12.8 0 0 0 9.856 7.808l43.52 7.104c1.664 3.328 3.456 6.4 5.248 9.792l-18.304 40.128a12.8 12.8 0 0 0 12.224 18.304l44.16-1.536 6.976 8.512-10.368 42.944a12.8 12.8 0 0 0 15.68 15.424l43.072-10.112 8.512 6.976-1.536 44.224a12.8 12.8 0 0 0 18.304 12.16l40.192-18.304c3.2 1.792 6.4 3.52 9.792 5.248l6.784 43.712a12.8 12.8 0 0 0 7.808 9.856 13.12 13.12 0 0 0 12.8-1.408l35.776-25.6 10.688 3.2 15.488 41.28a12.8 12.8 0 0 0 21.568 4.288L467.2 915.2c3.648 0.448 7.296 0.768 11.008 1.088l23.04 37.312a12.8 12.8 0 0 0 21.952 0l23.232-37.568 10.944-0.832 30.144 32a12.8 12.8 0 0 0 21.568-4.288l15.488-41.28 10.688-3.2 35.776 25.6a12.8 12.8 0 0 0 12.8 1.408 12.8 12.8 0 0 0 7.808-9.856l7.104-43.52 9.792-5.248 40.192 18.304a12.8 12.8 0 0 0 18.24-12.16l-1.536-44.224 8.512-6.976 42.688 10.24a12.8 12.8 0 0 0 12.096-3.456 12.8 12.8 0 0 0 3.264-11.968l-10.112-43.072a309.12 309.12 0 0 0 6.976-8.512l44.16 1.536a12.8 12.8 0 0 0 11.2-5.696 12.8 12.8 0 0 0 0.96-12.8l-18.304-40.128c1.728-3.2 3.52-6.4 5.248-9.792l43.52-7.104a12.8 12.8 0 0 0 8.384-20.288l-25.6-35.776 3.2-10.688 41.28-15.424a12.8 12.8 0 0 0 8.128-9.6 12.8 12.8 0 0 0-3.84-11.712l-32-30.144 1.088-10.944 37.312-23.232a12.8 12.8 0 0 0 0-22.016zM701.952 812.8a26.624 26.624 0 1 1 31.552-20.416 26.688 26.688 0 0 1-31.552 20.416z m-12.8-86.336a24.192 24.192 0 0 0-28.736 18.624l-13.376 62.272a328.256 328.256 0 0 1-272.896-0.96l-13.376-62.272a24.256 24.256 0 0 0-28.736-18.624l-54.976 11.776a329.792 329.792 0 0 1-28.416-33.472h267.52c3.008 0 5.056-0.576 5.056-3.328V605.632c0-2.752-2.048-3.328-5.056-3.328H437.888v-59.968h84.608a53.184 53.184 0 0 1 52.032 44.8c3.328 13.184 10.752 56.128 15.808 69.888a68.288 68.288 0 0 0 47.296 46.208h133.312a27.648 27.648 0 0 0 4.8-0.448 327.168 327.168 0 0 1-30.272 35.584l-56.256-12.096z m-369.92 85.056a26.624 26.624 0 1 1 20.416-31.616 26.56 26.56 0 0 1-20.416 31.744zM217.6 400.192a26.56 26.56 0 1 1-35.072-13.568 26.624 26.624 0 0 1 35.072 13.568z m-30.976 73.92l57.28-25.6A24.256 24.256 0 0 0 256 416.64l-11.584-26.688h46.336V599.04H197.184a326.848 326.848 0 0 1-12.8-89.6 338.56 338.56 0 0 1 1.856-35.2z m251.328-20.288v-61.568h110.464a41.216 41.216 0 0 1 40.32 32.448 41.088 41.088 0 0 1-48.32 29.12h-102.4z m401.408 55.424q0 12.288-0.896 24.256h-33.664a4.608 4.608 0 0 0-4.736 5.504v15.488a39.616 39.616 0 0 1-38.4 46.208 36.736 36.736 0 0 1-38.4-17.6 115.2 115.2 0 0 0-53.376-89.6 120.704 120.704 0 0 0 67.136-92.992 105.152 105.152 0 0 0-51.2-86.336 146.048 146.048 0 0 0-70.4-23.104H268.16a326.848 326.848 0 0 1 183.104-103.424l40.96 42.752a24.256 24.256 0 0 0 34.24 0.768l45.824-43.648a327.552 327.552 0 0 1 224 159.616l-31.296 70.784a24.32 24.32 0 0 0 12.352 32l60.352 26.88c1.088 10.688 1.6 21.568 1.6 32.512z m-347.072-358.4a26.56 26.56 0 1 1-0.896 37.632 26.56 26.56 0 0 1 0.832-37.376z m311.168 250.368a26.56 26.56 0 1 1 13.504 35.136 26.624 26.624 0 0 1-13.504-34.88z" fill="#A72146"></path></svg>